<svg id="visual" viewBox="0 0 900 600" width="900" height="600" xmlns="http://www.w3.org/2000/svg" xmlns:xlink="http://www.w3.org/1999/xlink" version="1.1"><rect x="0" y="0" width="900" height="600" fill="#6499E9"></rect><path d="M0 465L21.5 456.2C43 447.3 86 429.7 128.8 418.8C171.7 408 214.3 404 257.2 402.8C300 401.7 343 403.3 385.8 410.3C428.7 417.3 471.3 429.7 514.2 436.5C557 443.3 600 444.7 642.8 446.5C685.7 448.3 728.3 450.7 771.2 452.8C814 455 857 457 878.5 458L900 459L900 601L878.5 601C857 601 814 601 771.2 601C728.3 601 685.7 601 642.8 601C600 601 557 601 514.2 601C471.3 601 428.7 601 385.8 601C343 601 300 601 257.2 601C214.3 601 171.7 601 128.8 601C86 601 43 601 21.5 601L0 601Z" fill="#829af0"></path><path d="M0 475L21.5 470C43 465 86 455 128.8 453.2C171.7 451.3 214.3 457.7 257.2 466.8C300 476 343 488 385.8 485.5C428.7 483 471.3 466 514.2 462C557 458 600 467 642.8 475.2C685.7 483.3 728.3 490.7 771.2 491.5C814 492.3 857 486.7 878.5 483.8L900 481L900 601L878.5 601C857 601 814 601 771.2 601C728.3 601 685.7 601 642.8 601C600 601 557 601 514.2 601C471.3 601 428.7 601 385.8 601C343 601 300 601 257.2 601C214.3 601 171.7 601 128.8 601C86 601 43 601 21.5 601L0 601Z" fill="#a5b2f4"></path><path d="M0 529L21.5 527.3C43 525.7 86 522.3 128.8 514C171.7 505.7 214.3 492.3 257.2 486C300 479.7 343 480.3 385.8 479.8C428.7 479.3 471.3 477.7 514.2 481.3C557 485 600 494 642.8 495.5C685.7 497 728.3 491 771.2 489C814 487 857 489 878.5 490L900 491L900 601L878.5 601C857 601 814 601 771.2 601C728.3 601 685.7 601 642.8 601C600 601 557 601 514.2 601C471.3 601 428.7 601 385.8 601C343 601 300 601 257.2 601C214.3 601 171.7 601 128.8 601C86 601 43 601 21.5 601L0 601Z" fill="#c4cbf8"></path><path d="M0 546L21.5 539.7C43 533.3 86 520.7 128.8 516.8C171.7 513 214.3 518 257.2 518.8C300 519.7 343 516.3 385.8 519.7C428.7 523 471.3 533 514.2 538.3C557 543.7 600 544.3 642.8 544.3C685.7 544.3 728.3 543.7 771.2 537.5C814 531.3 857 519.7 878.5 513.8L900 508L900 601L878.5 601C857 601 814 601 771.2 601C728.3 601 685.7 601 642.8 601C600 601 557 601 514.2 601C471.3 601 428.7 601 385.8 601C343 601 300 601 257.2 601C214.3 601 171.7 601 128.8 601C86 601 43 601 21.5 601L0 601Z" fill="#e2e5fc"></path><path d="M0 569L21.5 567.8C43 566.7 86 564.3 128.8 564.5C171.7 564.7 214.3 567.3 257.2 567.7C300 568 343 566 385.8 562.5C428.7 559 471.3 554 514.2 551.7C557 549.3 600 549.7 642.8 548.2C685.7 546.7 728.3 543.3 771.2 542.5C814 541.7 857 543.3 878.5 544.2L900 545L900 601L878.5 601C857 601 814 601 771.2 601C728.3 601 685.7 601 642.8 601C600 601 557 601 514.2 601C471.3 601 428.7 601 385.8 601C343 601 300 601 257.2 601C214.3 601 171.7 601 128.8 601C86 601 43 601 21.5 601L0 601Z" fill="#ffffff"></path></svg>