<svg id="visual" viewBox="0 0 900 600" width="900" height="600" xmlns="http://www.w3.org/2000/svg" xmlns:xlink="http://www.w3.org/1999/xlink" version="1.1"><rect x="0" y="0" width="900" height="600" fill="#6499E9"></rect><path d="M0 376L21.5 395.8C43 415.7 86 455.3 128.8 460.3C171.7 465.3 214.3 435.7 257.2 422.3C300 409 343 412 385.8 431C428.7 450 471.3 485 514.2 490.5C557 496 600 472 642.8 458.3C685.7 444.7 728.3 441.3 771.2 441C814 440.7 857 443.3 878.5 444.7L900 446L900 601L878.5 601C857 601 814 601 771.2 601C728.3 601 685.7 601 642.8 601C600 601 557 601 514.2 601C471.3 601 428.7 601 385.8 601C343 601 300 601 257.2 601C214.3 601 171.7 601 128.8 601C86 601 43 601 21.5 601L0 601Z" fill="#FFF" stroke-linecap="round" stroke-linejoin="miter"></path></svg>